<?xml version="1.0" standalone="no"?>
<!DOCTYPE svg PUBLIC "-//W3C//DTD SVG 20010904//EN"
 "http://www.w3.org/TR/2001/REC-SVG-20010904/DTD/svg10.dtd">
<svg version="1.0" xmlns="http://www.w3.org/2000/svg"
 width="700.000000pt" height="700.000000pt" viewBox="0 0 700.000000 700.000000"
 preserveAspectRatio="xMidYMid meet">
<metadata>
Created by potrace 1.14, written by Peter Selinger 2001-2017
</metadata>
<g transform="translate(0.000000,700.000000) scale(0.100000,-0.100000)"
fill="#000000" stroke="none">
<path d="M380 6984 c-183 -49 -324 -193 -367 -374 -10 -44 -13 -639 -12 -3115
0 -2904 1 -3063 18 -3126 47 -173 193 -314 369 -355 47 -11 585 -13 3142 -11
l3085 2 62 26 c161 69 272 197 309 357 21 89 19 6153 -2 6232 -25 94 -64 161
-133 230 -73 73 -145 114 -236 135 -92 22 -6153 21 -6235 -1z"/>
</g>
</svg>
